<svg width="50" height="50" viewBox="0 0 50 50" fill="none" xmlns="http://www.w3.org/2000/svg">
<g clip-path="url(#clip0_66_3419)">
<path d="M33.4602 19.4354L34.8956 13.9146C35.2415 12.3583 35.4165 10.7604 35.4165 9.17083V0H33.3331V4.25833C29.5206 4.71042 26.4123 7.47083 24.9998 8.96667C23.5873 7.47083 20.479 4.71042 16.6665 4.25833V0H14.5831V9.17083C14.5831 10.7625 14.7581 12.3583 15.1123 13.9521L16.5373 19.4354L0.518555 33.6167C4.58105 43.4937 14.2686 50.0167 24.9998 50C35.7311 50.0167 45.4186 43.4917 49.4811 33.6167L33.4602 19.4354ZM24.179 11.1896L25.0019 12.2375L25.8206 11.1875C25.8561 11.1417 29.1686 7.01667 33.3331 6.37917V9.17292C33.3331 10.6125 33.1748 12.0583 32.8686 13.4292L31.4852 18.7521H18.5144L17.1394 13.4667C16.8269 12.0583 16.6665 10.6146 16.6665 9.17292V6.38125C20.8165 7.02083 24.1436 11.1458 24.179 11.1917V11.1896ZM24.9998 47.9167C15.6144 47.9167 7.08105 42.5417 3.0498 34.1583L18.1019 20.8333H31.8956L46.9498 34.1583C42.9186 42.5417 34.3873 47.9167 24.9998 47.9167Z" fill="white"/>
</g>
<defs>
<clipPath id="clip0_66_3419">
<rect width="50" height="50" fill="white"/>
</clipPath>
</defs>
</svg>
