<svg width="81" height="66" viewBox="0 0 81 66" fill="none" xmlns="http://www.w3.org/2000/svg">
<path fill-rule="evenodd" clip-rule="evenodd" d="M39.6057 0.00332879C41.9533 0.0519356 43.912 0.652967 45.6355 1.77536C47.3384 2.88445 48.7505 4.46304 50.0769 6.37123C51.8347 8.90028 52.8163 10.8702 52.9345 14.1899C53.0186 16.5537 51.8839 19.16 50.8604 21.0418C50.5306 21.6482 50.1992 22.2018 49.9 22.6764C50.3663 22.7312 50.8888 22.8032 51.4421 22.8983C53.3878 23.2327 55.9239 23.8825 57.6726 25.2041C59.0697 26.26 60.3335 28.0275 61.2085 29.4206C61.6397 30.1071 61.9975 30.7376 62.2534 31.2079C62.7074 31.1085 63.2983 30.9966 63.9534 30.9192C65.3479 30.7545 67.3397 30.7016 68.8364 31.5487C69.8753 32.1368 70.6118 33.1161 71.1387 34.1127C71.6721 35.1214 72.0457 36.2521 72.3088 37.2819C72.5661 38.2895 72.7264 39.2371 72.8235 39.9421C73.2325 39.904 73.7167 39.8759 74.2313 39.8819C74.948 39.8904 75.7693 39.9652 76.5451 40.1968C77.3174 40.4274 78.1342 40.8412 78.7161 41.5914C79.2738 42.3106 79.4997 43.1917 79.5804 43.9889C79.6623 44.7981 79.6056 45.6314 79.5062 46.357C79.406 47.0885 79.2567 47.7492 79.1336 48.2247C79.1144 48.2988 79.095 48.3685 79.0772 48.4338L81 51.1453L74.028 58.1104L72.5411 55.6591C72.5165 55.6638 72.4915 55.6693 72.466 55.6741C71.9043 55.7797 71.1276 55.896 70.2888 55.931C69.4596 55.9656 68.5097 55.9238 67.6276 55.6761C66.7424 55.4275 65.8223 54.94 65.2335 54.0112C64.8077 53.3395 64.6347 52.5563 64.5724 51.8506C64.5092 51.1332 64.5529 50.4036 64.6302 49.77C64.6429 49.6666 64.6567 49.565 64.6711 49.4655C64.4325 49.5164 64.1801 49.5647 63.9186 49.6055C63.1759 49.7214 62.3177 49.7883 61.4802 49.6919C60.6481 49.5961 59.7416 49.3278 59.0114 48.6879C58.5183 48.2558 58.1069 47.6473 57.8014 47.1164L56.117 48.9216C56.5968 49.2157 57.1608 49.5896 57.7284 50.0298C58.4717 50.6065 59.2586 51.3253 59.8683 52.1591C60.4756 52.9897 60.9644 54.0146 60.9644 55.1754C60.9643 56.3361 60.4756 57.3608 59.8683 58.1914C59.2586 59.0252 58.4717 59.744 57.7284 60.3206C56.9794 60.9016 56.237 61.3671 55.6854 61.6862C55.5862 61.7435 55.4925 61.7959 55.4059 61.844V66H24.904V61.8443C24.8173 61.7961 24.7235 61.7436 24.6242 61.6862C24.0726 61.3671 23.3301 60.9016 22.5812 60.3206C21.838 59.744 21.0513 59.0251 20.4416 58.1914C19.8343 57.3608 19.3453 56.3361 19.3452 55.1754C19.3453 54.0146 19.8343 52.9897 20.4416 52.1591C21.0513 51.3253 21.838 50.6064 22.5812 50.0298C23.1488 49.5896 23.7125 49.2154 24.1923 48.9213L23.2624 47.9248C23.0863 48.0857 22.8897 48.2602 22.677 48.4387C21.8524 49.1308 20.6374 50.025 19.4209 50.3568C18.149 50.7037 16.615 50.5088 15.5368 50.2946C15.4981 50.2869 15.4597 50.2788 15.4217 50.271C15.4526 50.5001 15.4805 50.7418 15.5014 50.9912C15.5615 51.7075 15.5728 52.5289 15.4433 53.3155C15.3158 54.0898 15.0329 54.9463 14.4084 55.6078C13.5989 56.4652 12.5265 56.6792 11.577 56.6345C10.6389 56.5903 9.68625 56.2933 8.88131 55.9621C8.06352 55.6257 7.32388 55.2231 6.79462 54.9095C6.7042 54.8559 6.61954 54.8042 6.541 54.7559L4.46783 55.9256L0 48.161L2.08842 47.1006C2.08693 47.0681 2.0849 47.0348 2.08353 47.0009C2.06138 46.4535 2.05535 45.7011 2.1235 44.8984C2.19089 44.1047 2.33497 43.2088 2.63849 42.3987C2.93759 41.6003 3.44446 40.7471 4.32693 40.2478C5.06545 39.83 5.88464 39.7652 6.59075 39.8255C7.30404 39.8864 8.00454 40.0834 8.59578 40.2979C8.72431 40.3446 8.84953 40.3931 8.97073 40.442C9.01005 39.7365 9.08455 38.8869 9.22377 37.9947C9.40303 36.8458 9.69599 35.5816 10.1847 34.4512C10.6681 33.3332 11.3942 32.2281 12.5087 31.5625C14.0487 30.6429 16.1243 30.7006 17.5763 30.8789C18.2202 30.958 18.8056 31.07 19.2676 31.1727C19.4489 30.7242 19.6902 30.1584 19.983 29.5476C20.6499 28.1565 21.6622 26.3556 22.9272 25.2551C24.4692 23.9136 26.7896 23.2548 28.5483 22.9153C28.9858 22.8308 29.4032 22.7639 29.7845 22.7104C29.4768 22.2375 29.1345 21.6846 28.7907 21.0781C27.7275 19.2022 26.5345 16.6168 26.4924 14.253C26.4651 12.7179 26.5836 11.4155 26.9274 10.1515C27.2712 8.88789 27.8247 7.71848 28.6044 6.43288C29.8852 4.32098 31.393 2.67224 33.2347 1.57024C35.0853 0.462936 37.1971 -0.0465205 39.6057 0.00332879ZM39.5571 2.36277C37.5255 2.32073 35.862 2.74714 34.4426 3.59636C33.0144 4.45094 31.7569 5.77966 30.6175 7.65841C29.9116 8.8223 29.4686 9.78541 29.2002 10.7721C28.9319 11.7585 28.823 12.825 28.8476 14.211C28.8785 15.9424 29.8031 18.0848 30.8392 19.9128C31.3426 20.801 31.8451 21.5691 32.222 22.1147C32.41 22.3868 32.5658 22.6023 32.6734 22.7482C32.7271 22.8211 32.7689 22.8766 32.7965 22.913C32.8102 22.9311 32.8205 22.9446 32.8269 22.953C32.8301 22.9572 32.8325 22.9602 32.8338 22.9619L32.8347 22.9631L34.246 24.7806L31.9494 24.8665L31.9497 24.8668H31.9488C31.9472 24.8668 31.9442 24.8669 31.9402 24.8671C31.9319 24.8674 31.9184 24.8682 31.9002 24.8691C31.8635 24.8709 31.8071 24.8739 31.7334 24.8786C31.5859 24.888 31.3689 24.9041 31.0994 24.9302C30.5587 24.9825 29.8131 25.0745 28.994 25.2326C27.2958 25.5605 25.5128 26.1314 24.4715 27.0372C23.5985 27.7968 22.7579 29.2108 22.1065 30.5695C21.792 31.2255 21.5404 31.828 21.3675 32.2663C21.2813 32.4849 21.2152 32.6616 21.1711 32.782C21.1491 32.8422 21.1327 32.8884 21.122 32.9186C21.1166 32.9336 21.1126 32.9448 21.1102 32.9517C21.109 32.9551 21.1083 32.9576 21.1079 32.9589C21.1078 32.9593 21.1077 32.9595 21.1076 32.9597L20.7367 34.0407L19.6463 33.7036C19.6452 33.7033 19.6434 33.7026 19.6411 33.7019C19.6351 33.7 19.6247 33.6971 19.6107 33.6929C19.5824 33.6846 19.5386 33.6718 19.4807 33.6558C19.3645 33.6236 19.1922 33.578 18.9772 33.527C18.5452 33.4245 17.9489 33.3026 17.2896 33.2216C15.8876 33.0495 14.5222 33.1072 13.7146 33.5895C13.1967 33.8988 12.7313 34.4987 12.3462 35.3895C11.9664 36.2679 11.7135 37.3169 11.5508 38.3591C11.3893 39.3942 11.3235 40.3792 11.2984 41.1086C11.2859 41.4719 11.2835 41.7686 11.2843 41.9723C11.2847 42.074 11.2859 42.1523 11.2869 42.2039C11.2874 42.2297 11.288 42.2489 11.2883 42.261C11.2885 42.2669 11.2885 42.2712 11.2886 42.2736C11.2886 42.2746 11.2886 42.2753 11.2886 42.2757L11.3634 44.4686L9.49665 43.3217L9.49722 43.322C9.49706 43.3219 9.49673 43.3216 9.49636 43.3214L9.49607 43.3211C9.49551 43.3208 9.49463 43.3205 9.49377 43.32C9.48989 43.3176 9.48285 43.3134 9.47307 43.3076C9.45334 43.2959 9.42189 43.2775 9.38019 43.2537C9.29656 43.206 9.17185 43.1368 9.01559 43.0561C8.70051 42.8933 8.26892 42.6893 7.79354 42.5168C7.31205 42.342 6.82504 42.2142 6.39091 42.1771C5.94962 42.1394 5.66063 42.2033 5.48486 42.3027C5.28095 42.4182 5.04599 42.688 4.84364 43.2281C4.64569 43.7565 4.52846 44.415 4.47042 45.0986C4.41315 45.7732 4.41749 46.4214 4.43706 46.9052C4.44679 47.1456 4.4603 47.342 4.47099 47.4759C4.47631 47.5426 4.48075 47.5937 4.48393 47.6269C4.48552 47.6434 4.48692 47.6556 4.48767 47.6629C4.48803 47.6664 4.48811 47.6689 4.48824 47.6701L4.57796 48.4828L3.28258 49.1402L5.34368 52.7229L6.65027 51.9862L7.25756 52.4117C7.25875 52.4126 7.26128 52.4145 7.26475 52.4169C7.27176 52.4218 7.28347 52.4296 7.29925 52.4403C7.33101 52.4618 7.38009 52.4946 7.44417 52.5365C7.57258 52.6203 7.76097 52.7401 7.99395 52.8782C8.46367 53.1565 9.09746 53.4999 9.77585 53.779C10.467 54.0633 11.134 54.251 11.6874 54.2771C12.2294 54.3027 12.5212 54.1723 12.697 53.9861C12.8705 53.8024 13.0308 53.468 13.1191 52.9315C13.2054 52.4072 13.2053 51.7977 13.1542 51.1888C13.1036 50.5866 13.0068 50.0254 12.9216 49.6121C12.8792 49.4068 12.8403 49.241 12.8126 49.1287C12.7987 49.0726 12.7876 49.0298 12.7804 49.0025C12.7768 48.989 12.7742 48.9792 12.7726 48.9734L12.7712 48.9677L12.1682 46.807L14.2874 47.5344C14.288 47.5346 14.2891 47.535 14.2908 47.5356C14.2949 47.537 14.302 47.5395 14.3118 47.5428C14.3316 47.5493 14.3627 47.5594 14.4038 47.5724C14.4864 47.5986 14.6095 47.6365 14.7641 47.6808C15.0747 47.7696 15.5073 47.8827 15.9948 47.9795C17.0243 48.184 18.0936 48.2727 18.8021 48.0795C19.4887 47.8922 20.3691 47.2969 21.1642 46.6295C21.3802 46.4483 21.5781 46.271 21.7511 46.111C21.7423 46.0974 21.733 46.0839 21.7241 46.0701C21.3649 45.5147 20.9197 44.7167 20.634 43.7982C20.2751 42.6442 20.5192 41.5491 20.9704 40.6433C21.4152 39.7506 22.0921 38.9714 22.7443 38.3499C23.404 37.7212 24.0883 37.2071 24.6015 36.853C24.8597 36.6748 25.0789 36.5343 25.2355 36.437C25.3139 36.3883 25.3771 36.35 25.4219 36.3235C25.4442 36.3102 25.4622 36.2999 25.4751 36.2924C25.4815 36.2886 25.4866 36.2854 25.4906 36.2831C25.4926 36.282 25.4944 36.281 25.4958 36.2803C25.4964 36.2799 25.497 36.2796 25.4975 36.2794L25.4981 36.2788C25.4984 36.2786 25.4988 36.2786 26.0818 37.3038L26.6652 38.3288C26.6641 38.3295 26.6617 38.3309 26.6583 38.3329C26.6513 38.337 26.6393 38.3441 26.6232 38.3536C26.5909 38.3728 26.541 38.4026 26.4766 38.4426C26.3475 38.5228 26.1605 38.6429 25.9377 38.7967C25.4886 39.1067 24.9101 39.5432 24.3677 40.06C23.8178 40.5841 23.353 41.1457 23.0781 41.6975C22.8098 42.2361 22.7565 42.6893 22.8829 43.0958C23.0826 43.7378 23.4094 44.3362 23.7009 44.7869C23.8442 45.0085 23.9734 45.186 24.0647 45.3055C24.1102 45.365 24.146 45.41 24.1688 45.438C24.1751 45.4458 24.1806 45.4522 24.1849 45.4573L28.0388 49.5876L26.5904 50.2825L26.5827 50.2862C26.575 50.29 26.562 50.2963 26.5447 50.305C26.5099 50.3224 26.4564 50.3495 26.3872 50.3856C26.2482 50.4582 26.046 50.5672 25.802 50.7083C25.3114 50.9921 24.6642 51.3991 24.0236 51.8961C23.3773 52.3974 22.7743 52.9622 22.3417 53.5537C21.9069 54.1485 21.7008 54.6912 21.7008 55.1754C21.7008 55.6595 21.9069 56.2021 22.3417 56.7967C22.7743 57.3883 23.3773 57.953 24.0236 58.4544C24.6642 58.9514 25.3114 59.3584 25.802 59.6422C26.046 59.7833 26.2482 59.8923 26.3872 59.9648C26.4564 60.001 26.5099 60.0281 26.5447 60.0455C26.562 60.0542 26.5749 60.0605 26.5827 60.0642C26.5864 60.0661 26.5891 60.0673 26.5904 60.068L27.2596 60.3892V63.64H39.1382L39.0209 31.6726H36.5477L38.2485 26.4357C38.1259 26.2967 37.9837 26.1331 37.8282 25.9468C37.3001 25.3145 36.6028 24.4155 35.9304 23.352C34.6261 21.2889 33.2407 18.3356 33.7448 15.444C34.1351 13.2055 35.4575 11.2172 36.5894 9.84788C37.1665 9.14982 37.72 8.58183 38.1301 8.18734C38.3355 7.98972 38.5063 7.83433 38.6278 7.72668C38.6886 7.67284 38.7374 7.63085 38.7719 7.60137C38.7891 7.58666 38.8027 7.57491 38.8127 7.56651C38.8176 7.56238 38.8217 7.559 38.8248 7.55642C38.8263 7.55514 38.8277 7.55386 38.8288 7.55297C38.8293 7.55254 38.8298 7.55215 38.8302 7.55181L38.8308 7.55153C38.8311 7.55132 38.8314 7.55101 39.5436 8.41493L38.8314 7.55095L39.648 6.87538L40.4051 7.61721L39.5813 8.46073C40.3694 7.65368 40.4037 7.61909 40.4054 7.61779L40.406 7.61807C40.4063 7.61841 40.4067 7.61906 40.4071 7.61951C40.408 7.6204 40.4093 7.62142 40.4106 7.62268L40.4569 7.66907C40.4869 7.69943 40.5294 7.74276 40.5825 7.79813C40.6887 7.9089 40.8382 8.06862 41.0182 8.27088C41.3773 8.67463 41.8618 9.25292 42.3684 9.9562C43.3644 11.3387 44.5223 13.3094 44.889 15.4472C45.3703 18.2526 44.1541 21.1856 42.9881 23.2627C42.3884 24.3309 41.7641 25.2387 41.2905 25.8788C41.1525 26.0653 41.0262 26.2292 40.9169 26.3692L42.855 31.6726H40.7875L40.9049 63.64H53.0503V60.3892L53.7192 60.068C53.7205 60.0674 53.7231 60.0661 53.7269 60.0642C53.7346 60.0605 53.7475 60.0542 53.7649 60.0455C53.7997 60.0281 53.8531 60.001 53.9225 59.9648C54.0614 59.8923 54.2636 59.7833 54.5076 59.6422C54.9982 59.3584 55.6457 58.9514 56.2863 58.4544C56.9326 57.9531 57.5353 57.3882 57.9679 56.7967C58.4027 56.202 58.6088 55.6595 58.6088 55.1754C58.6088 54.6912 58.4028 54.1485 57.9679 53.5537C57.5354 52.9622 56.9326 52.3974 56.2863 51.8961C55.6457 51.3991 54.9982 50.9921 54.5076 50.7083C54.2636 50.5672 54.0614 50.4582 53.9225 50.3856C53.8531 50.3494 53.7997 50.3223 53.7649 50.305C53.7475 50.2963 53.7346 50.29 53.7269 50.2862L53.7192 50.2825L52.2711 49.5876L57.2499 44.2517L57.2643 44.2364L57.2766 44.224C57.28 44.2205 57.2873 44.2128 57.2979 44.2012C57.3196 44.1777 57.3548 44.1386 57.3988 44.0857C57.4877 43.979 57.6082 43.8217 57.7281 43.6288C57.9795 43.2244 58.1677 42.7599 58.1677 42.3154C58.1677 41.3122 57.3637 40.367 56.1403 39.5622C55.5702 39.1872 54.9915 38.8989 54.5507 38.7034C54.3321 38.6064 54.1514 38.5339 54.028 38.4867C53.9664 38.4632 53.9194 38.4459 53.8894 38.4352C53.8744 38.4298 53.8636 38.426 53.8575 38.4239C53.8545 38.4229 53.8525 38.4224 53.8517 38.4222H53.8526L54.6036 36.1855L54.6062 36.1863C54.6077 36.1868 54.6096 36.1876 54.6117 36.1884C54.6158 36.1898 54.6213 36.1916 54.6278 36.1938C54.641 36.1984 54.6591 36.2048 54.6816 36.2128C54.7265 36.2289 54.7896 36.2518 54.8679 36.2817C55.0243 36.3415 55.2435 36.4295 55.5045 36.5453C56.0232 36.7754 56.7239 37.1231 57.4331 37.5896C58.7683 38.468 60.5233 40.0287 60.5233 42.3154C60.5233 43.3808 60.0939 44.2873 59.7276 44.8765C59.6438 45.0114 59.5594 45.1342 59.4798 45.2447C59.5299 45.3496 59.5854 45.4628 59.6463 45.58C59.9415 46.1484 60.2772 46.6619 60.5621 46.9116C60.8055 47.1248 61.1911 47.2832 61.7491 47.3474C62.3017 47.411 62.932 47.3711 63.556 47.2737C64.1736 47.1773 64.7438 47.0313 65.1622 46.9078C65.3699 46.8465 65.5372 46.7918 65.6501 46.7531C65.7065 46.7338 65.7494 46.7186 65.7767 46.7088C65.7902 46.7038 65.8 46.7002 65.8057 46.6981C65.808 46.6972 65.8097 46.6964 65.8106 46.6961L68.0494 45.8462L67.3547 48.1414C67.3545 48.1422 67.3544 48.1436 67.3538 48.1455C67.3525 48.1501 67.3499 48.1583 67.3466 48.1697C67.3401 48.1924 67.3302 48.2281 67.3173 48.2754C67.2915 48.3702 67.2548 48.511 67.2138 48.6868C67.1313 49.0403 67.0331 49.5253 66.9682 50.0566C66.9028 50.5924 66.8749 51.1453 66.9188 51.6428C66.9637 52.152 67.0765 52.5166 67.2218 52.7459C67.3944 53.0181 67.7154 53.2497 68.2633 53.4036C68.8142 53.5583 69.4899 53.6026 70.1907 53.5733C70.882 53.5445 71.5406 53.447 72.0313 53.3547C72.2747 53.3089 72.4727 53.2651 72.6075 53.2334C72.6748 53.2176 72.7262 53.2046 72.7593 53.1962C72.7758 53.192 72.7879 53.1889 72.795 53.187C72.7981 53.1862 72.8004 53.1856 72.8016 53.1853L73.6565 52.9531L74.4855 54.3203L77.925 50.884L76.4796 48.8458L76.6688 48.2774C76.6691 48.2764 76.6697 48.2748 76.6705 48.2725C76.6724 48.2667 76.6756 48.2568 76.68 48.2431C76.6886 48.2158 76.702 48.1731 76.7188 48.1169C76.7525 48.0045 76.8002 47.8384 76.8536 47.6321C76.9611 47.217 77.0883 46.6505 77.1725 46.0361C77.2575 45.4157 77.2933 44.7841 77.2369 44.2272C77.1793 43.6582 77.036 43.2716 76.8559 43.0394C76.6792 42.8116 76.367 42.6063 75.8723 42.4586C75.3809 42.3119 74.7968 42.2487 74.2034 42.2417C73.6167 42.2347 73.0646 42.2826 72.6558 42.3336C72.4529 42.3588 72.2889 42.3845 72.1779 42.4033C72.1227 42.4126 72.0807 42.4202 72.054 42.4252C72.0407 42.4277 72.031 42.4296 72.0255 42.4306C72.0234 42.4311 72.0218 42.4313 72.0209 42.4315L70.7025 42.7012L70.6111 41.3552V41.3541C70.611 41.352 70.6106 41.3482 70.6102 41.3431C70.6095 41.3326 70.6084 41.3157 70.6065 41.293C70.6028 41.2473 70.5966 41.1775 70.5878 41.087C70.5702 40.9058 70.5413 40.6415 70.4975 40.3178C70.4096 39.6678 70.2625 38.7897 70.0268 37.867C69.7896 36.9383 69.4721 36.0021 69.0572 35.2175C68.636 34.4209 68.1669 33.8803 67.6776 33.6033C66.8891 33.1571 65.5719 33.1042 64.2291 33.2628C63.5972 33.3375 63.0271 33.4502 62.6143 33.5446C62.4088 33.5916 62.2443 33.6337 62.1335 33.6633C62.0783 33.678 62.0364 33.6897 62.0096 33.6973C61.9962 33.701 61.9865 33.7037 61.9808 33.7053C61.9781 33.7061 61.9762 33.7068 61.9754 33.707L61.9751 33.7068L61.0207 33.992L60.5819 33.0954C60.5818 33.0952 60.5815 33.0946 60.5814 33.0943L60.5607 33.0528C60.5452 33.0219 60.5218 32.975 60.4905 32.9139C60.4279 32.7918 60.3347 32.613 60.215 32.3919C59.9752 31.9489 59.6311 31.34 59.215 30.6775C58.3588 29.3144 57.2844 27.8671 56.2538 27.0882C54.9838 26.1284 52.9316 25.5487 51.0439 25.2243C50.1271 25.0667 49.298 24.9772 48.6984 24.927C48.3992 24.902 48.1585 24.8867 47.9948 24.878C47.913 24.8736 47.8503 24.8707 47.8093 24.8691C47.7889 24.8683 47.7736 24.868 47.7642 24.8676C47.7596 24.8675 47.7562 24.8671 47.7544 24.8671C47.7538 24.867 47.7532 24.8671 47.753 24.8671L45.4592 24.8011L46.8504 22.9723C46.8506 22.9721 46.8509 22.9716 46.8512 22.9712C46.8525 22.9695 46.8548 22.9666 46.8578 22.9625C46.8642 22.9541 46.8742 22.9407 46.8877 22.9225C46.9148 22.886 46.9557 22.8301 47.0085 22.7568C47.1142 22.6101 47.2669 22.3933 47.4508 22.1199C47.8194 21.5716 48.3088 20.8012 48.7921 19.9125C49.7898 18.0782 50.6402 15.9566 50.5804 14.2741C50.4839 11.5639 49.7498 10.03 48.144 7.71977C46.9071 5.94023 45.6998 4.63192 44.3516 3.75395C43.024 2.88933 41.4996 2.403 39.5571 2.36277ZM39.5137 10.1331C39.1907 10.4567 38.8027 10.8702 38.4035 11.3531C37.3662 12.608 36.3507 14.213 36.0652 15.8502C35.7215 17.8222 36.6744 20.1186 37.9202 22.089C38.4778 22.9711 39.0599 23.7337 39.5249 24.2992C39.9373 23.7309 40.4473 22.9746 40.9351 22.1057C42.0469 20.1252 42.9039 17.8086 42.5674 15.847C42.2904 14.2323 41.3749 12.6097 40.4583 11.3373C40.1195 10.8669 39.791 10.4586 39.5137 10.1331Z" fill="white"/>
</svg>
