<svg width="32" height="32" viewBox="0 0 32 32" fill="none" xmlns="http://www.w3.org/2000/svg">
<path d="M18.6 29.1998C18.2667 29.3776 17.9278 29.4054 17.5834 29.2832C17.2389 29.1609 16.9778 28.9332 16.8 28.5998L14.8 24.5998C14.6222 24.2665 14.5945 23.9276 14.7167 23.5832C14.8389 23.2387 15.0667 22.9776 15.4 22.7998C15.7334 22.6221 16.0722 22.5943 16.4167 22.7165C16.7611 22.8387 17.0222 23.0665 17.2 23.3998L19.2 27.3998C19.3778 27.7332 19.4056 28.0721 19.2834 28.4165C19.1611 28.761 18.9334 29.0221 18.6 29.1998ZM26.6 29.1998C26.2667 29.3776 25.9278 29.4054 25.5834 29.2832C25.2389 29.1609 24.9778 28.9332 24.8 28.5998L22.8 24.5998C22.6222 24.2665 22.5945 23.9276 22.7167 23.5832C22.8389 23.2387 23.0667 22.9776 23.4 22.7998C23.7334 22.6221 24.0722 22.5943 24.4167 22.7165C24.7611 22.8387 25.0222 23.0665 25.2 23.3998L27.2 27.3998C27.3778 27.7332 27.4056 28.0721 27.2834 28.4165C27.1611 28.761 26.9334 29.0221 26.6 29.1998ZM10.6 29.1998C10.2667 29.3776 9.9278 29.4054 9.58335 29.2832C9.23891 29.1609 8.9778 28.9332 8.80002 28.5998L6.80002 24.5998C6.62224 24.2665 6.59446 23.9276 6.71669 23.5832C6.83891 23.2387 7.06669 22.9776 7.40002 22.7998C7.73335 22.6221 8.07224 22.5943 8.41669 22.7165C8.76113 22.8387 9.02224 23.0665 9.20002 23.3998L11.2 27.3998C11.3778 27.7332 11.4056 28.0721 11.2834 28.4165C11.1611 28.761 10.9334 29.0221 10.6 29.1998ZM10 21.3332C7.9778 21.3332 6.25002 20.6165 4.81669 19.1832C3.38335 17.7498 2.66669 16.0221 2.66669 13.9998C2.66669 12.1554 3.2778 10.5443 4.50002 9.1665C5.72224 7.78873 7.23335 6.97762 9.03335 6.73317C9.74446 5.4665 10.7167 4.47206 11.95 3.74984C13.1834 3.02762 14.5334 2.6665 16 2.6665C18 2.6665 19.7389 3.30539 21.2167 4.58317C22.6945 5.86095 23.5889 7.45539 23.9 9.3665C25.4334 9.49984 26.7222 10.1332 27.7667 11.2665C28.8111 12.3998 29.3334 13.7554 29.3334 15.3332C29.3334 16.9998 28.75 18.4165 27.5834 19.5832C26.4167 20.7498 25 21.3332 23.3334 21.3332H10ZM10 18.6665H23.3334C24.2667 18.6665 25.0556 18.3443 25.7 17.6998C26.3445 17.0554 26.6667 16.2665 26.6667 15.3332C26.6667 14.3998 26.3445 13.6109 25.7 12.9665C25.0556 12.3221 24.2667 11.9998 23.3334 11.9998H21.3334V10.6665C21.3334 9.19984 20.8111 7.94428 19.7667 6.89984C18.7222 5.85539 17.4667 5.33317 16 5.33317C14.9334 5.33317 13.9611 5.62206 13.0834 6.19984C12.2056 6.77762 11.5445 7.55539 11.1 8.53317L10.7667 9.33317H9.93335C8.66669 9.37762 7.58335 9.84984 6.68335 10.7498C5.78335 11.6498 5.33335 12.7332 5.33335 13.9998C5.33335 15.2887 5.78891 16.3887 6.70002 17.2998C7.61113 18.2109 8.71113 18.6665 10 18.6665Z" fill="#E1E1E1"/>
</svg>
