<svg width="33" height="32" viewBox="0 0 33 32" fill="none" xmlns="http://www.w3.org/2000/svg">
<path d="M8.9375 25.3335C8.45625 25.3335 8.04948 25.1724 7.71719 24.8502C7.3849 24.5279 7.21875 24.1335 7.21875 23.6668C7.21875 23.2002 7.3849 22.8057 7.71719 22.4835C8.04948 22.1613 8.45625 22.0002 8.9375 22.0002C9.41875 22.0002 9.82552 22.1613 10.1578 22.4835C10.4901 22.8057 10.6562 23.2002 10.6562 23.6668C10.6562 24.1335 10.4901 24.5279 10.1578 24.8502C9.82552 25.1724 9.41875 25.3335 8.9375 25.3335ZM13.0625 29.3335C12.5813 29.3335 12.1745 29.1724 11.8422 28.8502C11.5099 28.5279 11.3438 28.1335 11.3438 27.6668C11.3438 27.2002 11.5099 26.8057 11.8422 26.4835C12.1745 26.1613 12.5813 26.0002 13.0625 26.0002C13.5437 26.0002 13.9505 26.1613 14.2828 26.4835C14.6151 26.8057 14.7812 27.2002 14.7812 27.6668C14.7812 28.1335 14.6151 28.5279 14.2828 28.8502C13.9505 29.1724 13.5437 29.3335 13.0625 29.3335ZM17.1875 25.3335C16.7063 25.3335 16.2995 25.1724 15.9672 24.8502C15.6349 24.5279 15.4688 24.1335 15.4688 23.6668C15.4688 23.2002 15.6349 22.8057 15.9672 22.4835C16.2995 22.1613 16.7063 22.0002 17.1875 22.0002C17.6688 22.0002 18.0755 22.1613 18.4078 22.4835C18.7401 22.8057 18.9062 23.2002 18.9062 23.6668C18.9062 24.1335 18.7401 24.5279 18.4078 24.8502C18.0755 25.1724 17.6688 25.3335 17.1875 25.3335ZM25.4375 25.3335C24.9563 25.3335 24.5495 25.1724 24.2172 24.8502C23.8849 24.5279 23.7188 24.1335 23.7188 23.6668C23.7188 23.2002 23.8849 22.8057 24.2172 22.4835C24.5495 22.1613 24.9563 22.0002 25.4375 22.0002C25.9188 22.0002 26.3255 22.1613 26.6578 22.4835C26.9901 22.8057 27.1562 23.2002 27.1562 23.6668C27.1562 24.1335 26.9901 24.5279 26.6578 24.8502C26.3255 25.1724 25.9188 25.3335 25.4375 25.3335ZM21.3125 29.3335C20.8313 29.3335 20.4245 29.1724 20.0922 28.8502C19.7599 28.5279 19.5938 28.1335 19.5938 27.6668C19.5938 27.2002 19.7599 26.8057 20.0922 26.4835C20.4245 26.1613 20.8313 26.0002 21.3125 26.0002C21.7938 26.0002 22.2005 26.1613 22.5328 26.4835C22.8651 26.8057 23.0312 27.2002 23.0312 27.6668C23.0312 28.1335 22.8651 28.5279 22.5328 28.8502C22.2005 29.1724 21.7938 29.3335 21.3125 29.3335ZM10.3125 20.0002C8.22708 20.0002 6.44531 19.2835 4.96719 17.8502C3.48906 16.4168 2.75 14.6891 2.75 12.6668C2.75 10.8224 3.38021 9.21127 4.64062 7.8335C5.90104 6.45572 7.45937 5.64461 9.31563 5.40016C10.049 4.1335 11.0516 3.13905 12.3234 2.41683C13.5953 1.69461 14.9875 1.3335 16.5 1.3335C18.5625 1.3335 20.3557 1.97239 21.8797 3.25016C23.4036 4.52794 24.326 6.12239 24.6469 8.0335C26.2281 8.16683 27.5573 8.80016 28.6344 9.9335C29.7115 11.0668 30.25 12.4224 30.25 14.0002C30.25 15.6668 29.6484 17.0835 28.4453 18.2502C27.2422 19.4168 25.7812 20.0002 24.0625 20.0002H10.3125ZM10.3125 17.3335H24.0625C25.025 17.3335 25.8385 17.0113 26.5031 16.3668C27.1677 15.7224 27.5 14.9335 27.5 14.0002C27.5 13.0668 27.1677 12.2779 26.5031 11.6335C25.8385 10.9891 25.025 10.6668 24.0625 10.6668H22V9.3335C22 7.86683 21.4615 6.61127 20.3844 5.56683C19.3073 4.52239 18.0125 4.00016 16.5 4.00016C15.4 4.00016 14.3974 4.28905 13.4922 4.86683C12.587 5.44461 11.9052 6.22239 11.4469 7.20016L11.1031 8.00016H10.2438C8.9375 8.04461 7.82031 8.51683 6.89219 9.41683C5.96406 10.3168 5.5 11.4002 5.5 12.6668C5.5 13.9557 5.96979 15.0557 6.90938 15.9668C7.84896 16.8779 8.98333 17.3335 10.3125 17.3335Z" fill="#E1E1E1"/>
</svg>
