<svg width="32" height="32" viewBox="0 0 32 32" fill="none" xmlns="http://www.w3.org/2000/svg">
<path d="M14.6666 6.66683V1.3335H17.3333V6.66683H14.6666ZM23.5333 10.3335L21.7 8.50016L25.4333 4.66683L27.3 6.56683L23.5333 10.3335ZM25.3333 17.3335V14.6668H30.6666V17.3335H25.3333ZM14.6666 30.6668V25.3335H17.3333V30.6668H14.6666ZM8.46665 10.2668L4.66665 6.56683L6.56665 4.70016L10.3333 8.46683L8.46665 10.2668ZM25.4 27.3335L21.7 23.5002L23.5 21.7002L27.3 25.3668L25.4 27.3335ZM1.33331 17.3335V14.6668H6.66665V17.3335H1.33331ZM6.56665 27.3335L4.69998 25.4335L8.43331 21.7002L9.39998 22.6002L10.3666 23.5335L6.56665 27.3335ZM16 24.0002C13.7778 24.0002 11.8889 23.2224 10.3333 21.6668C8.77776 20.1113 7.99998 18.2224 7.99998 16.0002C7.99998 13.7779 8.77776 11.8891 10.3333 10.3335C11.8889 8.77794 13.7778 8.00016 16 8.00016C18.2222 8.00016 20.1111 8.77794 21.6666 10.3335C23.2222 11.8891 24 13.7779 24 16.0002C24 18.2224 23.2222 20.1113 21.6666 21.6668C20.1111 23.2224 18.2222 24.0002 16 24.0002ZM16 21.3335C17.4666 21.3335 18.7222 20.8113 19.7666 19.7668C20.8111 18.7224 21.3333 17.4668 21.3333 16.0002C21.3333 14.5335 20.8111 13.2779 19.7666 12.2335C18.7222 11.1891 17.4666 10.6668 16 10.6668C14.5333 10.6668 13.2778 11.1891 12.2333 12.2335C11.1889 13.2779 10.6666 14.5335 10.6666 16.0002C10.6666 17.4668 11.1889 18.7224 12.2333 19.7668C13.2778 20.8113 14.5333 21.3335 16 21.3335Z" fill="#E1E1E1"/>
</svg>
