<svg width="44" height="44" viewBox="0 0 44 44" fill="none" xmlns="http://www.w3.org/2000/svg">
<g clip-path="url(#clip0_66_3421)">
<path d="M44 11.2493C44 7.37 41.9467 3.85733 38.6448 2.08267C36.0727 0.702167 33.3667 0 30.6002 0H13.4017C10.6352 0 7.92917 0.700333 5.357 2.08267C2.05333 3.85733 0 7.37 0 11.2493V20.2107H7.33333V44H36.6667V20.1667H44V11.2493ZM28.3507 1.83333C27.9052 4.939 25.2267 7.33333 22 7.33333C18.7733 7.33333 16.0948 4.939 15.6493 1.83333H28.3507ZM42.1667 18.3333H36.6667V12.8333H34.8333V42.1667H9.16667V12.8333H7.33333V18.3773H1.83333V11.2493C1.83333 8.04467 3.5145 5.15167 6.22417 3.69783C8.52683 2.46217 10.9413 1.83333 13.4017 1.83333H13.8013C14.2597 5.95283 17.7613 9.16667 22 9.16667C26.2387 9.16667 29.7422 5.95283 30.1987 1.83333H30.5983C33.0587 1.83333 35.4732 2.46033 37.7758 3.69783C40.4837 5.15167 42.1667 8.0465 42.1667 11.2493V18.3333Z" fill="white"/>
</g>
<defs>
<clipPath id="clip0_66_3421">
<rect width="44" height="44" fill="white"/>
</clipPath>
</defs>
</svg>
